<svg xmlns="http://www.w3.org/2000/svg" viewBox="0 0 566 100" width="566" height="100" role="img" aria-label="Moona Studio"><svg x="0" y="0" width="100" height="100" viewBox="0 0 100 100"><circle cx="50" cy="50" r="48" fill="#100D07"></circle><defs><clipPath id="rimmh"><circle cx="50" cy="50" r="48"></circle></clipPath></defs><g clip-path="url(#rimmh)"><path d="M 86.32 250 L 86.32 -150 L 286.32 -150 L 286.32 250 Z" fill="rgb(61,56,44)"></path><path d="M -50.73478776322658 226.55493460761073 L 206.38025611138914 -79.86284263998051 L 359.58914473518473 48.69467929732734 L 102.47410086056904 355.1124565449186 Z" fill="rgb(35,32,25)"></path><path d="M -140.6546487895787 120.49785312278948 L 253.26845241530452 51.03858205601731 L 287.9980879486906 248.0001326584589 L -105.92501325619261 317.4594037252311 Z" fill="rgb(51,47,37)"></path><path d="M -141.36508075688775 -18.545957334549158 L 205.04508075688776 181.45404266545074 L 105.0450807568878 354.6591234223385 L -241.36508075688772 154.6591234223386 Z" fill="rgb(103,94,74)"></path><path d="M -52.53366465207797 -125.51635255159337 L 84.2743926781896 250.36069576276995 L -103.66413147899206 318.76472442790373 L -240.47218880925962 -57.11232388645959 Z" fill="rgb(165,150,118)"></path><path d="M 84.27439267818954 -150.36069576276998 L -52.533664652077924 225.5163525515934 L -240.47218880925962 157.11232388645965 L -103.66413147899215 -218.76472442790373 Z" fill="rgb(209,190,150)"></path><path d="M 205.04508075688764 -81.45404266545088 L -141.3650807568877 118.54595733454929 L -241.36508075688778 -54.65912342233838 L 105.04508075688756 -254.65912342233855 Z" fill="rgb(214,195,154)"></path><path d="M 253.26845241530452 48.9614179439826 L -140.65464878957874 -20.497853122789387 L -105.92501325619276 -217.45940372523103 L 287.9980879486905 -148.00013265845902 Z" fill="rgb(178,162,128)"></path><path d="M 206.38025611138917 179.86284263998044 L -50.73478776322665 -126.55493460761068 L 102.47410086056891 -255.1124565449186 L 359.58914473518473 51.30532070267253 Z" fill="rgb(118,107,85)"></path><polygon points="86.32,63.22 69.33,83.47 43.29,88.06 20.39,74.84 11.35,50.00 20.39,25.16 43.29,11.94 69.33,16.53 86.32,36.78" fill="none" stroke="#100D07" stroke-width="1"></polygon><line x1="86.32" y1="63.22" x2="86.32" y2="183.22" stroke="#100D07" stroke-width=".8"></line><line x1="69.33" y1="83.47" x2="-7.81" y2="175.40" stroke="#100D07" stroke-width=".8"></line><line x1="43.29" y1="88.06" x2="-74.89" y2="108.90" stroke="#100D07" stroke-width=".8"></line><line x1="20.39" y1="74.84" x2="-83.53" y2="14.84" stroke="#100D07" stroke-width=".8"></line><line x1="11.35" y1="50.00" x2="-29.69" y2="-62.76" stroke="#100D07" stroke-width=".8"></line><line x1="20.39" y1="25.16" x2="61.43" y2="-87.61" stroke="#100D07" stroke-width=".8"></line><line x1="43.29" y1="11.94" x2="147.21" y2="-48.06" stroke="#100D07" stroke-width=".8"></line><line x1="69.33" y1="16.53" x2="187.50" y2="37.37" stroke="#100D07" stroke-width=".8"></line><line x1="86.32" y1="36.78" x2="163.45" y2="128.71" stroke="#100D07" stroke-width=".8"></line></g></svg><text x="140" y="62.4" font-family="'SF Mono',ui-monospace,Menlo,Consolas,monospace" font-size="36" letter-spacing="12.2" fill="#dcecff" textLength="402" lengthAdjust="spacing">MOONA STUDIO</text></svg>
